<svg width="48" height="48" viewBox="0 0 48 48" fill="none" xmlns="http://www.w3.org/2000/svg">
<path fill-rule="evenodd" clip-rule="evenodd" d="M43.7351 10.1233L45.5463 44.5041H25.9191L26.6471 30.6961H21.4295L22.1559 44.5041H2.53027L4.34147 10.1233H6.20707V3.49609H18.5399V10.1233H20.3447L20.7399 17.5889H27.3383L27.7303 10.1233H29.5975V3.49609H41.9303V10.1233H43.7351ZM14.5399 10.1233H10.2071V7.49609H14.5399V10.1233ZM18.8551 26.6961H29.0743V21.5889H18.8551V26.6961ZM37.9303 10.1233H33.5975V7.49609H37.9303V10.1233ZM17.6071 34.1809H7.07907L8.13667 14.1233H16.5511L16.7335 17.5889H14.8551V30.6961H17.4231L17.6071 34.1809ZM6.86947 38.1809L6.74627 40.5041H17.9399L17.8183 38.1809H6.86947ZM31.5255 14.1233H39.9399L40.9975 34.1809H30.4695L30.6519 30.6961H33.0743V17.5889H31.3431L31.5255 14.1233ZM30.2583 38.1809L30.1367 40.5041H41.3303L41.2071 38.1809H30.2583Z" fill="white"/>
</svg>
