<?xml version="1.0" encoding="utf-8"?>
<!-- Generator: Adobe Illustrator 23.1.1, SVG Export Plug-In . SVG Version: 6.00 Build 0)  -->
<svg version="1.1" id="Layer_1" xmlns="http://www.w3.org/2000/svg" xmlns:xlink="http://www.w3.org/1999/xlink" x="0px" y="0px"
	 viewBox="0 0 48 48" style="enable-background:new 0 0 48 48;" xml:space="preserve">
<style type="text/css">
	.st0{fill-rule:evenodd;clip-rule:evenodd;fill:#FFFFFF;}
</style>
<path class="st0" d="M41.2,20.9v14.2c2,0.8,3.5,2.8,3.5,5.1c0,3-2.4,5.5-5.5,5.5c-3,0-5.5-2.4-5.5-5.5c0-2.3,1.4-4.3,3.5-5.1V24.9
	H26v10.2c2,0.8,3.5,2.8,3.5,5.1c0,3-2.4,5.5-5.5,5.5c-3,0-5.5-2.4-5.5-5.5c0-2.3,1.4-4.3,3.5-5.1V24.9H10.8v10.2
	c2,0.8,3.5,2.8,3.5,5.1c0,3-2.4,5.5-5.5,5.5c-3,0-5.5-2.4-5.5-5.5c0-2.3,1.4-4.3,3.5-5.1V20.9H22v-7.9c-2-0.8-3.5-2.8-3.5-5.1
	c0-3,2.5-5.5,5.5-5.5c3,0,5.5,2.4,5.5,5.5c0,2.3-1.4,4.3-3.5,5.1v7.9H41.2z M24,6.4c0.8,0,1.5,0.7,1.5,1.5S24.8,9.3,24,9.3
	c-0.8,0-1.5-0.7-1.5-1.5S23.2,6.4,24,6.4z M7.3,40.2c0,0.8,0.7,1.5,1.5,1.5c0.8,0,1.5-0.7,1.5-1.5c0-0.8-0.7-1.5-1.5-1.5
	C8,38.7,7.3,39.4,7.3,40.2z M24,41.6c-0.8,0-1.5-0.7-1.5-1.5c0-0.8,0.7-1.5,1.5-1.5c0.8,0,1.5,0.7,1.5,1.5
	C25.5,41,24.8,41.6,24,41.6z M39.2,41.6c-0.8,0-1.5-0.7-1.5-1.5c0-0.8,0.7-1.5,1.5-1.5s1.5,0.7,1.5,1.5C40.7,41,40,41.6,39.2,41.6z"
	/>
</svg>
